<svg xmlns="http://www.w3.org/2000/svg" data-name="Слой 1" viewBox="0 0 128 160" x="0px" y="0px"><title>ic_format_c</title><path d="M118,68H96V2a2,2,0,0,0-2-2H38.37l-.15,0a2,2,0,0,0-1.63.57l-28,28a2.18,2.18,0,0,0-.32.43l-.06.11a1.89,1.89,0,0,0-.17.49v0A1.5,1.5,0,0,0,8,30v96a2,2,0,0,0,2,2H94a2,2,0,0,0,2-2V112h22a2,2,0,0,0,2-2V70A2,2,0,0,0,118,68ZM36,6.83V28H14.83ZM92,124H12V32H38a2,2,0,0,0,2-2V4H92V68H50a2,2,0,0,0-2,2v40a2,2,0,0,0,2,2H92Zm24-16H52V72h64Z"/><path d="M85,100a10,10,0,0,0,4.66-1.15,2,2,0,0,0-1.86-3.54A5.92,5.92,0,0,1,85,96a6,6,0,0,1,0-12,5.92,5.92,0,0,1,2.59.59A2,2,0,1,0,89.32,81,9.9,9.9,0,0,0,85,80a10,10,0,0,0,0,20Z"/><text x="0" y="143" fill="#000000" font-size="5px" font-weight="bold" font-family="'Helvetica Neue', Helvetica, Arial-Unicode, Arial, Sans-serif"></text><text x="0" y="148" fill="#000000" font-size="5px" font-weight="bold" font-family="'Helvetica Neue', Helvetica, Arial-Unicode, Arial, Sans-serif"></text></svg>