<svg xmlns="http://www.w3.org/2000/svg" xmlns:xlink="http://www.w3.org/1999/xlink" viewBox="0 0 60 75" version="1.1" x="0px" y="0px"><title>9 -C++ File- (Solid)</title><desc>Created with Sketch.</desc><g stroke="none" stroke-width="1" fill="none" fill-rule="evenodd"><g transform="translate(-1080.000000, -340.000000)" fill="#000000"><g transform="translate(1080.000000, 340.000000)"><path d="M58,46 L47,46 L17,46 L17,24 L47,24 L58,24 L58,46 Z M59,22 L48,22 L48,14 L35,14 C34.447,14 34,13.552 34,13 L34,0 L1,0 C0.447,0 0,0.448 0,1 L0,59 C0,59.552 0.447,60 1,60 L47,60 C47.553,60 48,59.552 48,59 L48,48 L59,48 C59.553,48 60,47.552 60,47 L60,23 C60,22.448 59.553,22 59,22 L59,22 Z"/><path d="M27.999,28 C29.608,28 31.121,28.531 32.375,29.535 C32.808,29.882 33.436,29.812 33.78,29.38 C34.126,28.949 34.057,28.32 33.625,27.975 C32.037,26.701 30.038,26 27.999,26 C23.036,26 18.999,30.038 18.999,35 C18.999,39.962 23.036,44 27.999,44 C30.038,44 32.037,43.299 33.625,42.025 C34.057,41.68 34.126,41.051 33.78,40.62 C33.436,40.19 32.805,40.12 32.375,40.465 C31.121,41.469 29.608,42 27.999,42 C24.14,42 20.999,38.86 20.999,35 C20.999,31.14 24.14,28 27.999,28"/><path d="M44,34 L41,34 L41,31 C41,30.448 40.553,30 40,30 C39.447,30 39,30.448 39,31 L39,34 L36,34 C35.447,34 35,34.448 35,35 C35,35.552 35.447,36 36,36 L39,36 L39,39 C39,39.552 39.447,40 40,40 C40.553,40 41,39.552 41,39 L41,36 L44,36 C44.553,36 45,35.552 45,35 C45,34.448 44.553,34 44,34"/><path d="M47,34 C46.447,34 46,34.448 46,35 C46,35.552 46.447,36 47,36 L50,36 L50,39 C50,39.552 50.447,40 51,40 C51.553,40 52,39.552 52,39 L52,36 L55,36 C55.553,36 56,35.552 56,35 C56,34.448 55.553,34 55,34 L52,34 L52,31 C52,30.448 51.553,30 51,30 C50.447,30 50,30.448 50,31 L50,34 L47,34 Z"/><polygon points="36 0.5859 36 11.9999 47.414 11.9999"/></g></g></g><text x="0" y="75" fill="#000000" font-size="5px" font-weight="bold" font-family="'Helvetica Neue', Helvetica, Arial-Unicode, Arial, Sans-serif"></text><text x="0" y="80" fill="#000000" font-size="5px" font-weight="bold" font-family="'Helvetica Neue', Helvetica, Arial-Unicode, Arial, Sans-serif"></text></svg>