<svg xmlns="http://www.w3.org/2000/svg" xmlns:xlink="http://www.w3.org/1999/xlink" version="1.0" x="0px" y="0px" viewBox="0 0 100 125" enable-background="new 0 0 100 100" xml:space="preserve"><path d="M10,10l6.667,73.333L50,90l33.333-6.667L90,10H10z M77.146,77.773L50,83.2l-27.146-5.427l-5.557-61.106h65.4L77.146,77.773z  "/><polygon points="27.327,53.333 65.977,53.333 64.766,66.653 50,69.603 35.231,66.653 34.626,60 27.933,60 29.043,72.214 50,76.399   70.957,72.214 73.278,46.667 33.415,46.667 31.901,30 74.792,30 75.397,23.333 24.6,23.333 "/><text x="0" y="115" fill="#000000" font-size="5px" font-weight="bold" font-family="'Helvetica Neue', Helvetica, Arial-Unicode, Arial, Sans-serif"></text><text x="0" y="120" fill="#000000" font-size="5px" font-weight="bold" font-family="'Helvetica Neue', Helvetica, Arial-Unicode, Arial, Sans-serif"></text></svg>