<svg xmlns="http://www.w3.org/2000/svg" viewBox="0 0 100 125" x="0px" y="0px"><title>js</title><g><path d="M67.22,28.89,66.5,9H14.67V91.33H85.5V29.12ZM47.5,57.54a9.89,9.89,0,0,1-.4,2.86,6.62,6.62,0,0,1-1.22,2.36,5.75,5.75,0,0,1-2.1,1.57,7.15,7.15,0,0,1-3,.58,8,8,0,0,1-4-.93,6.94,6.94,0,0,1-2.22-2.08.94.94,0,0,1,.2-1.31l1.72-1.28a1,1,0,0,1,1.31.2,3.71,3.71,0,0,0,.84.8,2.84,2.84,0,0,0,1.58.51,2.39,2.39,0,0,0,2-.79,4.61,4.61,0,0,0,.66-2.88V44.46a.94.94,0,0,1,.94-.94h2.86a.93.93,0,0,1,.93.94ZM64.89,60.9A6.09,6.09,0,0,1,63.34,63a7.66,7.66,0,0,1-2.5,1.41,9.73,9.73,0,0,1-3.35.53,11.92,11.92,0,0,1-4.11-.75,10.5,10.5,0,0,1-2.9-1.63.94.94,0,0,1-.16-1.35l1.53-1.85a.92.92,0,0,1,1.25-.17,10.34,10.34,0,0,0,1.83,1.05,6.52,6.52,0,0,0,2.69.61,3.64,3.64,0,0,0,2.21-.55,1.75,1.75,0,0,0,.72-1.48,1.57,1.57,0,0,0-.21-.83,1.92,1.92,0,0,0-.61-.63,5.15,5.15,0,0,0-1-.52l-1.24-.53-2.73-1.16a7.7,7.7,0,0,1-1.57-.84,6.73,6.73,0,0,1-1.35-1.21,5.35,5.35,0,0,1-.95-1.61,5.62,5.62,0,0,1-.35-2.07A5.68,5.68,0,0,1,51.11,47a6,6,0,0,1,1.55-2A7.21,7.21,0,0,1,55,43.62a9,9,0,0,1,3-.49,9.8,9.8,0,0,1,3.62.71,9.15,9.15,0,0,1,2.44,1.43,1,1,0,0,1,.15,1.33l-1.31,1.61a.93.93,0,0,1-1.24.2,8,8,0,0,0-1.37-.75A5.84,5.84,0,0,0,58,47.23a3.32,3.32,0,0,0-1.95.5,1.6,1.6,0,0,0-.72,1.4,1.39,1.39,0,0,0,.24.82,2.35,2.35,0,0,0,.67.61,6.9,6.9,0,0,0,1,.52l1.26.53,2.7,1.09a7.53,7.53,0,0,1,3.05,2.13,5.45,5.45,0,0,1,1.11,3.58A6,6,0,0,1,64.89,60.9Z"/><path d="M87,25.34,70.92,7.75A8.44,8.44,0,0,0,64.69,5H19.23a8.45,8.45,0,0,0-8.44,8.44V86.56A8.45,8.45,0,0,0,19.23,95H80.77a8.45,8.45,0,0,0,8.44-8.44V31A8.4,8.4,0,0,0,87,25.34Zm-5.33,2.51H71.31A2.82,2.82,0,0,1,68.5,25V13.44Zm-.9,61.53H19.23a2.83,2.83,0,0,1-2.82-2.82V13.44a2.83,2.83,0,0,1,2.82-2.82H62.87V25a8.45,8.45,0,0,0,8.44,8.44H83.59V86.56A2.83,2.83,0,0,1,80.77,89.38Z"/></g><text x="0" y="115" fill="#000000" font-size="5px" font-weight="bold" font-family="'Helvetica Neue', Helvetica, Arial-Unicode, Arial, Sans-serif"></text><text x="0" y="120" fill="#000000" font-size="5px" font-weight="bold" font-family="'Helvetica Neue', Helvetica, Arial-Unicode, Arial, Sans-serif"></text></svg>