<svg xmlns="http://www.w3.org/2000/svg" xmlns:xlink="http://www.w3.org/1999/xlink" version="1.1" x="0px" y="0px" viewBox="0 0 100 125" style="enable-background:new 0 0 100 100;" xml:space="preserve"><g><g><path d="M43.5,64.1h-1.9v4.1h1.8c1.3,0,1.9-0.9,1.9-2.1S44.7,64.1,43.5,64.1z"/><path d="M83.7,26.3c0-0.8-0.3-1.6-0.9-2.2L66,6.1c-0.6-0.7-1.5-1-2.4-1h-42c-2.9,0-5.3,2.4-5.3,5.3v79.3c0,2.9,2.4,5.3,5.3,5.3    h56.9c2.9,0,5.3-2.4,5.3-5.3L83.7,26.3z M44.2,71.3h-2.6v3.5c0,0.8-0.4,1.2-1.2,1.2h-1.4c-0.8,0-1.2-0.4-1.2-1.2V62.1    c0-0.8,0.4-1.2,1.2-1.2h5.1c2.9,0,4.9,2.1,4.9,5.2S47.1,71.3,44.2,71.3z M63.3,62.3l-4.2,7.5v5c0,0.8-0.4,1.2-1.2,1.2h-1.4    c-0.8,0-1.2-0.4-1.2-1.2v-5l-4.2-7.5c-0.5-0.8-0.1-1.4,0.8-1.4h1.7c0.7,0,1.1,0.3,1.3,0.9l1.3,2.8c0.5,1,0.9,2.2,0.9,2.2h0    c0,0,0.4-1.1,0.9-2.2l1.3-2.8c0.3-0.6,0.7-0.9,1.3-0.9h1.7C63.4,60.9,63.7,61.5,63.3,62.3z M79.1,27.3h-11c-2.9,0-5.3-2.4-5.3-5.3    V10.2c0-0.3,0.4-0.4,0.6-0.2l16,16.7C79.5,26.9,79.4,27.3,79.1,27.3z"/></g></g><text x="0" y="115" fill="#000000" font-size="5px" font-weight="bold" font-family="'Helvetica Neue', Helvetica, Arial-Unicode, Arial, Sans-serif"></text><text x="0" y="120" fill="#000000" font-size="5px" font-weight="bold" font-family="'Helvetica Neue', Helvetica, Arial-Unicode, Arial, Sans-serif"></text></svg>